<svg width="122" height="121" viewBox="0 0 122 121" fill="none" xmlns="http://www.w3.org/2000/svg">
<path d="M60.69 120.68C27.42 120.68 0.350006 93.61 0.350006 60.34C0.350006 27.07 27.42 0 60.69 0C93.96 0 121.03 27.07 121.03 60.34C121.03 93.61 93.96 120.68 60.69 120.68ZM60.69 3.01C29.08 3.01 3.36 28.73 3.36 60.34C3.36 91.95 29.08 117.67 60.69 117.67C92.3 117.67 118.02 91.95 118.02 60.34C118.02 59.91 118.02 59.48 118.01 59.06C117.32 28.04 91.88 3.01 60.69 3.01Z" fill="#C9AE79"/>
<path d="M91.7 85.2C90.84 85.2 90.1 85.93 90.1 86.78C90.1 87.63 90.84 88.36 91.7 88.36C92.56 88.36 93.3 87.63 93.3 86.78C93.18 85.81 92.56 85.2 91.7 85.2Z" fill="#C9AE79"/>
<path d="M36.42 40.32C36.42 39.1 35.44 38.01 34.09 38.01C32.74 38.01 31.76 39.1 31.76 40.32C31.76 41.54 32.74 42.63 34.09 42.63C35.44 42.63 36.42 41.53 36.42 40.32Z" fill="#C9AE79"/>
<path d="M74.87 56.01L82.49 48.47C83.72 47.25 83.72 45.31 82.49 44.21C81.88 43.6 81.14 43.36 80.28 43.36C79.42 43.36 78.68 43.72 78.07 44.21L75.61 46.64L70.45 51.75L74.87 56.01Z" fill="#C9AE79"/>
<path d="M62.46 69.51L64.79 68.42C65.16 68.18 65.65 68.42 65.77 68.79C66.01 69.15 65.77 69.64 65.4 69.76L62.45 71.22V74.62L64.78 73.53C65.15 73.29 65.64 73.53 65.76 73.89C66 74.26 65.76 74.74 65.39 74.86L62.44 76.32V84.1C67.23 81.06 70.18 76.07 70.18 70.72C70.18 65.37 66.99 59.9 61.7 56.85C56.54 59.77 53.22 65 53.22 70.72C53.22 76.07 56.17 81.06 60.96 84.1V76.32L58.01 74.86C57.64 74.62 57.52 74.25 57.64 73.89C57.76 73.53 58.25 73.4 58.62 73.53L60.95 74.62V71.22L58 69.76C57.63 69.52 57.51 69.15 57.63 68.79C57.87 68.42 58.24 68.3 58.61 68.42L60.94 69.51V65.62C60.94 65.26 61.31 64.89 61.68 64.89C62.05 64.89 62.42 65.26 62.42 65.62V69.51H62.46Z" fill="#C9AE79"/>
<path d="M90.1 38.01C91.82 38.01 93.17 36.67 93.17 34.97C93.17 33.27 91.82 31.93 90.1 31.93C88.38 31.93 87.03 33.27 87.03 34.97C87.03 36.67 88.5 38.01 90.1 38.01Z" fill="#C9AE79"/>
<path d="M24.51 92.92C26.23 92.92 27.58 91.58 27.58 89.88C27.58 88.18 26.23 86.84 24.51 86.84C22.79 86.84 21.44 88.18 21.44 89.88C21.44 91.58 22.91 92.92 24.51 92.92Z" fill="#C9AE79"/>
<path d="M78.68 23.54C79.56 23.54 80.28 24.25 80.28 25.12C80.28 25.99 79.57 26.7 78.68 26.7C77.79 26.7 77.08 25.99 77.08 25.12C77.08 24.25 77.8 23.54 78.68 23.54Z" fill="#C9AE79"/>
<path d="M89.36 46.4C90.24 46.4 90.96 47.11 90.96 47.98C90.96 48.85 90.25 49.56 89.36 49.56C88.47 49.56 87.76 48.85 87.76 47.98C87.76 47.11 88.48 46.4 89.36 46.4Z" fill="#C9AE79"/>
<path d="M44.9 29.62C45.78 29.62 46.5 30.33 46.5 31.2C46.5 32.07 45.79 32.78 44.9 32.78C44.01 32.78 43.3 32.07 43.3 31.2C43.3 30.33 44.02 29.62 44.9 29.62Z" fill="#C9AE79"/>
<path d="M29.54 49.44C30.42 49.44 31.14 50.15 31.14 51.02C31.14 51.89 30.43 52.6 29.54 52.6C28.65 52.6 27.94 51.89 27.94 51.02C27.94 50.15 28.66 49.44 29.54 49.44Z" fill="#C9AE79"/>
<path d="M29.54 79.85C30.42 79.85 31.14 80.56 31.14 81.43C31.14 82.3 30.43 83.01 29.54 83.01C28.65 83.01 27.94 82.3 27.94 81.43C27.94 80.56 28.66 79.85 29.54 79.85Z" fill="#C9AE79"/>
<path d="M81.75 88.97C82.63 88.97 83.35 89.68 83.35 90.55C83.35 91.42 82.63 92.13 81.75 92.13C80.87 92.13 80.15 91.42 80.15 90.55C80.15 89.68 80.87 88.97 81.75 88.97Z" fill="#C9AE79"/>
<path d="M84.98 63.7C84.98 63.22 85.24 62.8 85.62 62.56C84.82 58.76 83.16 55.14 80.76 52L75.36 57.6C75.24 57.72 74.99 57.84 74.87 57.84C74.75 57.84 74.5 57.72 74.38 57.6L68.97 52.25C68.85 52.13 68.72 51.89 68.72 51.76C68.72 51.63 68.84 51.39 68.97 51.27L74.01 46.28C72.05 45.06 69.96 44.21 67.75 43.6C67.38 43.48 67.14 43.24 67.14 42.87V24.63H70.95C71.32 24.63 71.69 24.27 71.69 23.9C71.69 23.53 71.32 23.17 70.95 23.17H51.05C50.68 23.17 50.31 23.53 50.31 23.9C50.31 24.27 50.68 24.63 51.05 24.63H54.86V28.89H58.67C59.04 28.89 59.41 29.26 59.41 29.62C59.41 29.98 59.04 30.35 58.67 30.35H54.86V33.39H58.67C59.04 33.39 59.41 33.75 59.41 34.12C59.41 34.49 59.04 34.85 58.67 34.85H54.86V37.89H58.67C59.04 37.89 59.41 38.25 59.41 38.62C59.41 38.99 59.04 39.35 58.67 39.35H54.86V42.75C54.86 43.11 54.61 43.36 54.25 43.48C43.32 46.4 35.58 56.37 35.58 67.68C35.58 81.55 47 92.73 60.88 92.73V85.8C55.23 82.64 51.67 76.8 51.67 70.72C51.67 64.64 55.35 58.56 61.25 55.4C61.49 55.28 61.74 55.28 61.99 55.4C67.89 58.56 71.57 64.4 71.57 70.72C71.57 77.04 68.01 82.64 62.36 85.8V92.61C68.31 92.28 73.71 89.9 77.86 86.16C77.55 86.26 77.23 86.33 76.88 86.33C75.12 86.33 73.69 84.92 73.69 83.17C73.69 81.42 75.12 80.01 76.88 80.01C78.64 80.01 80.07 81.42 80.07 83.17C80.07 83.49 80.01 83.79 79.92 84.08C83.82 79.66 86.18 73.88 86.18 67.55C86.18 66.69 86.12 65.84 86.03 65C85.44 64.85 85 64.32 85 63.69L84.98 63.7ZM39.2 68.09C38.06 68.09 37.14 67.18 37.14 66.05C37.14 64.92 38.06 64.01 39.2 64.01C40.34 64.01 41.26 64.92 41.26 66.05C41.26 67.18 40.33 68.09 39.2 68.09ZM41.34 61.5C40.58 61.5 39.97 60.89 39.97 60.14C39.97 59.39 40.59 58.78 41.34 58.78C42.09 58.78 42.71 59.39 42.71 60.14C42.71 60.89 42.1 61.5 41.34 61.5ZM45.41 82.02C44.12 82.02 43.07 80.98 43.07 79.7C43.07 78.42 44.11 77.38 45.41 77.38C46.71 77.38 47.75 78.42 47.75 79.7C47.75 80.98 46.7 82.02 45.41 82.02ZM77.77 74.04C77.01 74.04 76.4 73.43 76.4 72.68C76.4 71.93 77.01 71.32 77.77 71.32C78.53 71.32 79.14 71.93 79.14 72.68C79.14 73.43 78.52 74.04 77.77 74.04ZM79.43 67.24C78.29 67.24 77.37 66.33 77.37 65.2C77.37 64.07 78.29 63.16 79.43 63.16C80.57 63.16 81.49 64.07 81.49 65.2C81.49 66.33 80.57 67.24 79.43 67.24Z" fill="#C9AE79"/>
</svg>
