<svg width="122" height="119" viewBox="0 0 122 119" fill="none" xmlns="http://www.w3.org/2000/svg">
<path d="M116.77 111C118.38 111 119.69 112.29 119.69 113.87C119.69 115.45 118.39 116.75 116.77 116.75C115.15 116.75 113.86 115.46 113.86 113.87C113.86 112.28 115.16 111 116.77 111Z" fill="#C9AE79"/>
<path d="M113.19 10.82C115.43 10.82 117.45 9.04998 117.45 6.61998C117.45 4.18998 115.65 2.41998 113.19 2.41998C110.95 2.41998 108.93 4.18998 108.93 6.61998C108.93 9.04998 110.95 10.82 113.19 10.82Z" fill="#C9AE79"/>
<path d="M90.34 50.85C90.34 50.19 89.66 49.74 89.22 49.74C84.07 49.08 79.14 49.74 74.66 51.73C74.89 50.18 75.11 48.85 75.11 47.31C75.11 39.57 71.08 32.05 64.36 27.19C63.91 26.74 63.24 26.74 62.79 27.19C56.07 31.83 52.04 39.35 52.04 47.31C52.04 48.85 52.26 50.41 52.49 51.95C49.35 50.4 45.77 49.74 41.96 49.74C40.61 49.74 39.5 49.74 38.15 49.96C37.48 49.96 37.03 50.4 37.03 51.06C35.24 58.8 37.48 66.32 42.63 71.85C47.11 76.27 53.16 78.93 59.88 78.93H62.12V90.65C62.12 91.31 62.79 91.98 63.47 91.98C64.15 91.98 64.81 91.32 64.81 90.65V78.93H67.05C68.84 78.93 70.41 78.71 72.2 78.49C72.87 78.27 73.54 77.6 73.32 76.94C73.09 76.28 72.42 75.61 71.75 75.84C69.73 76.28 67.49 76.28 65.25 76.28V72.08V71.19C65.25 70.31 65.02 69.2 64.8 68.31C65.47 64.55 67.26 61.24 69.95 58.36C74.43 53.94 80.7 51.73 87.65 52.39C88.55 59.03 86.53 65.44 82.27 69.86C81.82 70.3 81.82 71.19 82.27 71.85C82.72 72.29 83.61 72.29 84.28 71.85C89.66 66.32 91.68 58.8 90.33 50.84L90.34 50.85Z" fill="#C9AE79"/>
<path d="M103.11 90.88C100.42 90.88 97.96 91.99 96.17 93.76C92.81 97.08 92.36 101.94 94.83 105.7C85.41 112.11 74.66 115.43 63.68 115.43C49.57 115.43 35.45 110.12 24.93 99.72C6.32999 81.37 3.63999 51.95 18.88 30.72C20.44 31.6 22.24 32.27 24.03 32.27C26.72 32.27 29.18 31.17 30.98 29.4C34.34 26.08 34.79 21.22 32.32 17.46C53.83 2.64 83.63 5.06999 102.22 23.43C116.78 37.8 121.93 59.04 115.44 78.5C115.21 79.16 115.66 80.05 116.34 80.27H116.79C117.47 80.27 117.91 79.83 118.14 79.39C121.5 69.66 121.94 59.04 119.48 48.87C117.01 38.48 111.86 28.97 104.02 21.45C94.16 11.72 81.17 5.97 67.5 5.08C54.29 4.2 41.07 7.73 30.31 15.25C28.52 13.7 26.28 12.82 23.81 12.82C21.12 12.82 18.66 13.93 16.86 15.7C13.28 19.24 13.05 25.21 16.41 28.97C8.78999 39.59 5.20999 52.63 6.10999 65.68C7.00999 79.39 13.05 92 22.69 101.73C32.55 111.46 45.55 117.21 59.21 118.1C60.56 118.1 61.9 118.32 63.25 118.32C75.12 118.32 86.77 114.78 96.4 107.93C98.19 109.48 100.43 110.36 102.9 110.36C105.59 110.36 108.05 109.25 109.84 107.48C113.65 103.72 113.65 97.53 109.84 93.77C108.27 91.78 105.81 90.89 103.12 90.89L103.11 90.88Z" fill="#C9AE79"/>
<path d="M7.45 104.15C3.64 104.15 0.5 107.25 0.5 111.01C0.5 114.77 3.64 117.87 7.45 117.87C11.26 117.87 14.39 114.77 14.39 111.01C14.39 107.25 11.25 104.15 7.45 104.15Z" fill="#C9AE79"/>
<path d="M83.17 30.94C84.78 30.94 86.08 32.23 86.08 33.81C86.08 35.39 84.78 36.68 83.17 36.68C81.56 36.68 80.26 35.39 80.26 33.81C80.26 32.23 81.56 30.94 83.17 30.94Z" fill="#C9AE79"/>
<path d="M41.05 36.47C42.65 36.47 43.96 37.76 43.96 39.34C43.96 40.92 42.65 42.21 41.05 42.21C39.45 42.21 38.14 40.92 38.14 39.34C38.14 37.76 39.44 36.47 41.05 36.47Z" fill="#C9AE79"/>
<path d="M83.17 86.23C84.78 86.23 86.08 87.52 86.08 89.11C86.08 90.7 84.78 91.99 83.17 91.99C81.56 91.99 80.26 90.7 80.26 89.11C80.26 87.52 81.56 86.23 83.17 86.23Z" fill="#C9AE79"/>
<path d="M10.36 0.429993C11.96 0.429993 13.27 1.72 13.27 3.3C13.27 4.88 11.96 6.17999 10.36 6.17999C8.76001 6.17999 7.45001 4.89 7.45001 3.3C7.45001 1.71 8.76001 0.429993 10.36 0.429993Z" fill="#C9AE79"/>
<path d="M29.85 72.3C31.46 72.3 32.76 73.59 32.76 75.18C32.76 76.77 31.45 78.05 29.85 78.05C28.25 78.05 26.94 76.76 26.94 75.18C26.94 73.6 28.24 72.3 29.85 72.3Z" fill="#C9AE79"/>
<path d="M105.57 61.25C107.18 61.25 108.48 62.54 108.48 64.12C108.48 65.7 107.18 66.99 105.57 66.99C103.96 66.99 102.66 65.7 102.66 64.12C102.66 62.54 103.96 61.25 105.57 61.25Z" fill="#C9AE79"/>
</svg>
