<svg width="121" height="122" viewBox="0 0 121 122" fill="none" xmlns="http://www.w3.org/2000/svg">
<path d="M60.33 121.5C27.32 121.5 0.469971 94.4 0.469971 61.1C0.469971 27.8 27.32 0.700012 60.33 0.700012C93.34 0.700012 120.19 27.79 120.19 61.1C120.19 94.41 93.34 121.5 60.33 121.5ZM60.33 3.70999C28.97 3.70999 3.45997 29.46 3.45997 61.1C3.45997 92.74 28.97 118.49 60.33 118.49C91.69 118.49 117.2 92.74 117.2 61.1C117.2 29.46 91.69 3.70999 60.33 3.70999Z" fill="#C9AE79"/>
<path d="M73.91 45.21V42.83C73.91 39.54 70.83 36.86 67.04 36.86H55.1C51.31 36.86 48.23 39.54 48.23 42.83V45.21H40.82C37.57 45.21 34.92 47.86 34.92 51.11V78.13C34.92 81.38 37.57 84.03 40.82 84.03H81.31C84.56 84.03 87.21 81.38 87.21 78.13V51.11C87.21 47.86 84.56 45.21 81.31 45.21H73.9H73.91ZM84.79 78.13C84.79 80.04 83.23 81.6 81.32 81.6H40.83C38.91 81.6 37.36 80.04 37.36 78.13V51.11C37.36 49.2 38.92 47.64 40.83 47.64H81.32C83.23 47.64 84.79 49.2 84.79 51.11V78.13ZM55.1 39.29H67.04C69.49 39.29 71.48 40.88 71.48 42.83V45.21H67.93V44.18C67.93 42.24 66.15 40.65 63.97 40.65H58.17C55.99 40.65 54.21 42.23 54.21 44.18V45.21H50.66V42.83C50.66 40.88 52.65 39.29 55.1 39.29ZM65.5 45.21H56.64V44.18C56.64 43.59 57.34 43.08 58.17 43.08H63.97C64.8 43.08 65.5 43.58 65.5 44.18V45.21Z" fill="#C9AE79"/>
<path d="M70.75 60.8H65.38V55.43C65.38 55.03 65.06 54.7 64.65 54.7H58.46C58.06 54.7 57.73 55.03 57.73 55.43V60.8H52.37C51.97 60.8 51.64 61.13 51.64 61.53V67.72C51.64 68.12 51.97 68.45 52.37 68.45H57.73V73.82C57.73 74.22 58.06 74.55 58.46 74.55H64.65C65.05 74.55 65.38 74.22 65.38 73.82V68.45H70.75C71.15 68.45 71.48 68.12 71.48 67.72V61.53C71.48 61.13 71.15 60.8 70.75 60.8Z" fill="#C9AE79"/>
<path d="M87.05 25.93H83.05V21.93C83.05 21.63 82.81 21.39 82.51 21.39H77.9C77.6 21.39 77.36 21.63 77.36 21.93V25.93H73.36C73.06 25.93 72.82 26.17 72.82 26.47V31.08C72.82 31.38 73.06 31.62 73.36 31.62H77.36V35.62C77.36 35.92 77.6 36.16 77.9 36.16H82.51C82.81 36.16 83.05 35.92 83.05 35.62V31.62H87.05C87.35 31.62 87.59 31.38 87.59 31.08V26.47C87.59 26.17 87.35 25.93 87.05 25.93Z" fill="#C9AE79"/>
<path d="M30.06 69.58H26.06V65.58C26.06 65.28 25.82 65.04 25.52 65.04H20.91C20.61 65.04 20.37 65.28 20.37 65.58V69.58H16.37C16.07 69.58 15.83 69.82 15.83 70.12V74.73C15.83 75.03 16.07 75.27 16.37 75.27H20.37V79.27C20.37 79.57 20.61 79.81 20.91 79.81H25.52C25.82 79.81 26.06 79.57 26.06 79.27V75.27H30.06C30.36 75.27 30.6 75.03 30.6 74.73V70.12C30.6 69.82 30.36 69.58 30.06 69.58Z" fill="#C9AE79"/>
<path d="M78.58 92.56H75.95V89.93C75.95 89.73 75.79 89.57 75.59 89.57H72.55C72.35 89.57 72.19 89.73 72.19 89.93V92.56H69.56C69.36 92.56 69.2 92.72 69.2 92.92V95.96C69.2 96.16 69.36 96.32 69.56 96.32H72.19V98.95C72.19 99.15 72.35 99.31 72.55 99.31H75.59C75.79 99.31 75.95 99.15 75.95 98.95V96.32H78.58C78.78 96.32 78.94 96.16 78.94 95.96V92.92C78.94 92.72 78.78 92.56 78.58 92.56Z" fill="#C9AE79"/>
</svg>
