<svg width="94" height="129" viewBox="0 0 94 129" fill="none" xmlns="http://www.w3.org/2000/svg">
<path d="M85.85 58.63C82.08 50.92 76.82 42.03 70.24 32.2C59.04 15.5 47.69 1.67 47.58 1.54L46.52 0.25L45.46 1.54C45.35 1.68 34 15.51 22.8 32.2C16.21 42.03 10.96 50.92 7.19 58.63C2.42 68.38 0 76.32 0 82.22C0 94.65 4.84 106.33 13.63 115.12C22.42 123.91 34.1 128.75 46.53 128.75C58.96 128.75 70.64 123.91 79.43 115.12C88.22 106.33 93.06 94.65 93.06 82.22C93.06 76.32 90.64 68.38 85.87 58.63H85.85ZM2.74 82.22C2.74 72.3 10.46 55.53 25.07 33.74C34.21 20.1 43.46 8.39 46.52 4.58C49.58 8.39 58.83 20.1 67.97 33.74C82.58 55.53 90.3 72.3 90.3 82.22C90.3 89.9 88.31 97.12 84.82 103.4L84.78 103.37C78.58 111.32 69.64 116.38 59.63 117.62C49.62 118.86 39.73 116.12 31.77 109.92C25.46 105 21.45 97.92 20.47 89.98C19.49 82.04 21.66 74.2 26.58 67.9C34.61 57.61 49.52 55.77 59.81 63.8C63.74 66.87 66.24 71.28 66.85 76.23C67.46 81.18 66.11 86.07 63.04 90C60.63 93.09 57.17 95.05 53.28 95.53C49.4 96.01 45.56 94.95 42.47 92.54C40.06 90.66 38.52 87.95 38.15 84.91C37.78 81.87 38.61 78.87 40.49 76.46C41.95 74.59 44.05 73.4 46.41 73.11C48.77 72.82 51.1 73.46 52.97 74.92C54.41 76.04 55.33 77.66 55.55 79.47C55.77 81.28 55.28 83.07 54.15 84.51C53.3 85.6 52.07 86.3 50.69 86.47C49.31 86.64 47.95 86.26 46.86 85.41C46.04 84.77 45.52 83.85 45.39 82.82C45.26 81.8 45.54 80.78 46.17 79.97C45.73 80.66 45.54 81.48 45.64 82.31C45.76 83.24 46.23 84.08 46.97 84.65C48.73 86.03 51.29 85.71 52.66 83.95C54.26 81.89 53.9 78.92 51.84 77.31C50.67 76.4 49.21 75.99 47.73 76.17C46.25 76.35 44.93 77.1 44.02 78.27C42.93 79.66 42.45 81.4 42.67 83.15C42.89 84.91 43.77 86.47 45.17 87.56C46.84 88.86 48.92 89.44 51.02 89.18C53.12 88.92 55 87.86 56.3 86.19C57.88 84.18 58.57 81.67 58.26 79.13C57.94 76.59 56.66 74.33 54.65 72.75C52.2 70.84 49.16 70 46.07 70.38C42.99 70.76 40.24 72.32 38.33 74.77C36 77.76 34.97 81.48 35.44 85.24C35.9 89 37.81 92.36 40.79 94.69C44.46 97.55 49.01 98.81 53.62 98.24C58.23 97.67 62.35 95.34 65.2 91.67C68.72 87.16 70.27 81.56 69.57 75.88C68.87 70.21 66 65.15 61.49 61.63C50 52.67 33.38 54.73 24.42 66.21C19.05 73.09 16.68 81.65 17.75 90.31C18.82 98.97 23.2 106.7 30.08 112.07C37.27 117.68 45.94 120.65 54.91 120.65C56.58 120.65 58.27 120.55 59.95 120.34C65.4 119.67 70.55 117.94 75.17 115.28C67.48 121.96 57.45 126 46.49 126C22.35 126 2.7 106.36 2.7 82.21L2.74 82.22Z" fill="#C9AE79"/>
</svg>
