<svg width="472" height="81" viewBox="0 0 472 81" fill="none" xmlns="http://www.w3.org/2000/svg">
<g clip-path="url(#clip0_1_35)">
<path d="M260.85 51.22V0.959999H281.31C290.87 0.959999 296.5 6.34 296.5 14.46C296.5 22.58 290.88 28.03 281.31 28.03H264.08V51.22H260.84H260.85ZM264.09 24.95H281.04C288.85 24.95 293.27 21.14 293.27 14.47C293.27 7.8 288.84 4.06 281.04 4.06H264.09V24.94V24.95Z" fill="#201600"/>
<path d="M307.61 51.22V0.959999H329.41C338.76 0.959999 344.39 6.2 344.39 14.17C344.39 21.35 339.96 26.45 332.15 27.38L348.32 51.22H344.52L328.42 27.6H310.84V51.22H307.6H307.61ZM310.85 24.51H329.13C336.72 24.51 341.16 20.85 341.16 14.24C341.16 7.63 336.73 4.05 329.13 4.05H310.85V24.51Z" fill="#201600"/>
<path d="M359.85 51.22V0.959999H363.08V51.22H359.85Z" fill="#201600"/>
<path d="M378.27 51.22V0.959999H381.57L400.7 26.59L419.83 0.959999H422.99V51.22H419.75V6.06L401.75 30.18H399.64L381.5 6.06V51.22H378.27Z" fill="#201600"/>
<path d="M437.83 51.22V0.959999H470.74V4.05H441.07V22.64H465.61V25.73H441.07V48.13H471.87V51.22H437.83Z" fill="#201600"/>
<path d="M47.45 25.86C47.45 39.84 37.74 51.22 22.46 51.22H0V50.93H2.1C5.58 50.93 8.4 50.35 8.4 44.7V7.1C8.4 1.38 5.58 0.799998 2.1 0.799998H0V0.509998H22.46C37.75 0.509998 47.45 11.88 47.45 25.86ZM40.21 25.86C40.21 13.62 34.7 0.799998 21.73 0.799998H14.41V50.93H21.73C34.69 50.93 40.2 38.17 40.2 25.86H40.21Z" fill="#201600"/>
<path d="M85.99 49.62C86.57 48.75 86.71 47.66 86.35 46.73L71.65 9.45L60.85 34.92L58.68 40.28C57.74 42.67 58.03 45.35 59.48 47.52C60.93 49.62 63.32 50.93 65.93 50.93V51.22H46.01V50.93C53.4 50.93 56.66 44.12 58.4 39.84L74.04 0.509998H74.33L90.48 41C92.14 45.2 94.46 50.93 99.53 50.93V51.22H80.19V50.93H83.52C84.54 50.93 85.48 50.42 85.98 49.62H85.99Z" fill="#201600"/>
<path d="M164.8 49.62C165.38 48.75 165.53 47.66 165.16 46.73L150.46 9.45L139.66 34.92L137.49 40.28C136.55 42.67 136.84 45.35 138.29 47.52C139.74 49.62 142.13 50.93 144.74 50.93V51.22H124.82V50.93C132.21 50.93 135.47 44.12 137.21 39.84L152.85 0.509998H153.14L169.29 41C170.96 45.2 173.27 50.93 178.34 50.93V51.22H159V50.93H162.33C163.34 50.93 164.29 50.42 164.79 49.62H164.8Z" fill="#201600"/>
<path d="M142.93 0.51V0.8C135.54 0.8 132.28 7.61 130.55 11.88L114.83 51.22H114.54L98.45 10.79C96.79 6.51 94.47 0.79 89.4 0.79V0.5H108.67V0.79H105.41C104.4 0.79 103.45 1.3 102.88 2.17C102.37 2.97 102.23 4.05 102.59 5L117.62 42.48L130.31 10.98C131.25 8.59 130.91 6.38 129.46 4.2C128.01 2.1 125.62 0.8 123.01 0.8V0.51H142.93Z" fill="#201600"/>
<path d="M216.97 37.96C216.97 45.42 209.94 51.8 200.89 51.8C192.7 51.8 188.87 46.44 185.97 48.47L185.68 48.54L184.01 33.91H184.3C185.89 40.58 191.84 51.37 200.89 51.37C206.69 51.37 211.32 46.88 211.25 41.59C211.25 27.82 183.43 26.53 183.43 11.89C183.43 5.44 189.59 0.00999832 197.41 0.00999832C203.06 0.00999832 206.9 2.84 209.8 2.84C210.67 2.84 211.1 2.55 211.03 1.68H211.32L212.99 16.24L212.7 16.31C211.47 11.53 208.21 0.449998 197.41 0.449998C192.12 0.449998 188.5 4.07 188.5 8.42C188.5 21.31 216.97 21.97 216.97 37.97V37.96Z" fill="#201600"/>
<path d="M230.45 51.29L249.17 1.08H246.6L227.88 51.29H230.45Z" fill="#2D4838"/>
<path d="M77.48 80.44V68.24H82.93C85.32 68.24 86.78 69.55 86.78 71.55C86.78 73.28 85.72 74.53 83.91 74.82L87.85 80.43H86.33L82.5 74.94H78.77V80.43H77.48V80.44ZM78.77 73.79H82.86C84.53 73.79 85.49 73 85.49 71.61C85.49 70.22 84.51 69.41 82.86 69.41H78.77V73.79Z" fill="#201600"/>
<path d="M95.65 80.44V68.24H104.01V69.41H96.94V73.31H102.74V74.48H96.94V79.27H104.27V80.44H95.65Z" fill="#201600"/>
<path d="M112.15 80.44V68.24H117.27C119.71 68.24 121.17 69.6 121.17 71.62C121.17 73.64 119.71 75.05 117.27 75.05H113.44V80.43H112.15V80.44ZM113.44 73.89H117.19C118.92 73.89 119.91 73.07 119.91 71.66C119.91 70.25 118.92 69.41 117.19 69.41H113.44V73.89Z" fill="#201600"/>
<path d="M129.08 80.44V68.24H134.53C136.92 68.24 138.38 69.55 138.38 71.55C138.38 73.28 137.32 74.53 135.51 74.82L139.45 80.43H137.93L134.1 74.94H130.37V80.43H129.08V80.44ZM130.37 73.79H134.46C136.13 73.79 137.09 73 137.09 71.61C137.09 70.22 136.11 69.41 134.46 69.41H130.37V73.79Z" fill="#201600"/>
<path d="M147.25 80.44V68.24H155.61V69.41H148.54V73.31H154.34V74.48H148.54V79.27H155.87V80.44H147.25Z" fill="#201600"/>
<path d="M162.85 79.36V77.91C163.32 78.31 163.95 78.68 164.75 78.99C165.57 79.29 166.41 79.44 167.28 79.44C169.18 79.44 170.57 78.55 170.57 77.14C170.66 76.37 170.08 75.8 169.56 75.48C169.42 75.38 169.18 75.25 168.83 75.13L168.06 74.87C167.89 74.82 167.57 74.71 167.14 74.59C166.6 74.43 166.16 74.31 165.85 74.21C165.54 74.11 165.17 73.96 164.77 73.78C164.37 73.59 164.07 73.38 163.86 73.17C163.44 72.74 163.09 72.04 163.09 71.18C163.09 70.26 163.46 69.51 164.21 68.92C164.96 68.33 165.99 68.03 167.31 68.03C168.76 68.03 170.03 68.36 171.11 69.04V70.36C169.91 69.61 168.65 69.23 167.35 69.23C165.4 69.23 164.41 70.1 164.41 71.22C164.32 71.83 164.81 72.3 165.19 72.6C165.29 72.69 165.49 72.77 165.76 72.88L166.35 73.11L167.1 73.32L167.83 73.53C168.34 73.69 168.74 73.81 169.03 73.91C169.33 74.01 169.69 74.17 170.09 74.38C170.49 74.59 170.8 74.81 171.03 75.04C171.5 75.47 171.88 76.24 171.88 77.13C171.88 78.23 171.44 79.08 170.56 79.71C169.69 80.34 168.63 80.65 167.35 80.65C165.54 80.65 163.83 80.11 162.84 79.36H162.85Z" fill="#201600"/>
<path d="M180.03 80.44V68.24H188.39V69.41H181.32V73.31H187.12V74.48H181.32V79.27H188.65V80.44H180.03Z" fill="#201600"/>
<path d="M196.53 80.44V68.24H197.65L205.35 78.21V68.24H206.61V80.44H205.51L197.79 70.44V80.44H196.53Z" fill="#201600"/>
<path d="M218.48 80.44V69.41H214.28V68.24H224.02V69.41H219.77V80.44H218.48Z" fill="#201600"/>
<path d="M243 80.44V69.41H238.8V68.24H248.54V69.41H244.29V80.44H243Z" fill="#201600"/>
<path d="M256.23 80.44V68.24H257.52V73.31H264.77V68.24H266.06V80.44H264.77V74.48H257.52V80.44H256.23Z" fill="#201600"/>
<path d="M274.83 80.44V68.24H283.19V69.41H276.12V73.31H281.92V74.48H276.12V79.27H283.45V80.44H274.83Z" fill="#201600"/>
<path d="M306.9 68.04C308.66 68.04 310.11 68.65 311.27 69.85C312.44 71.05 313.03 72.55 313.03 74.34C313.03 76.13 312.44 77.65 311.27 78.85C310.1 80.05 308.66 80.64 306.9 80.64C305.14 80.64 303.68 80.05 302.51 78.85C301.34 77.65 300.77 76.13 300.77 74.34C300.77 72.55 301.35 71.05 302.51 69.85C303.68 68.65 305.14 68.04 306.9 68.04ZM306.9 79.45C308.26 79.45 309.41 78.96 310.33 77.99C311.25 77.01 311.72 75.79 311.72 74.35C311.72 72.91 311.25 71.68 310.33 70.71C309.41 69.73 308.26 69.25 306.9 69.25C305.54 69.25 304.39 69.74 303.47 70.71C302.55 71.68 302.08 72.91 302.08 74.35C302.08 75.79 302.55 77.02 303.47 77.99C304.39 78.96 305.54 79.45 306.9 79.45Z" fill="#201600"/>
<path d="M321.34 80.44V68.24H326.79C329.18 68.24 330.64 69.55 330.64 71.55C330.64 73.28 329.58 74.53 327.76 74.82L331.7 80.43H330.19L326.36 74.94H322.63V80.43H321.34V80.44ZM322.63 73.79H326.72C328.39 73.79 329.35 73 329.35 71.61C329.35 70.22 328.37 69.41 326.72 69.41H322.63V73.79Z" fill="#201600"/>
<path d="M339.6 80.44V68.24H340.89V80.44H339.6Z" fill="#201600"/>
<path d="M349.75 80.44V68.24H358.11V69.41H351.04V73.31H356.84V74.48H351.04V79.27H358.37V80.44H349.75Z" fill="#201600"/>
<path d="M366.25 80.44V68.24H367.36L375.06 78.21V68.24H376.31V80.44H375.21L367.49 70.44V80.44H366.24H366.25Z" fill="#201600"/>
<path d="M388.2 80.44V69.41H384V68.24H393.74V69.41H389.49V80.44H388.2Z" fill="#201600"/>
</g>
<defs>
<clipPath id="clip0_1_35">
<rect width="471.86" height="80.65" fill="white"/>
</clipPath>
</defs>
</svg>
