<svg width="298" height="300" viewBox="0 0 298 300" fill="none" xmlns="http://www.w3.org/2000/svg">
<path d="M89.07 128.33C89.07 141.3 80.07 151.84 65.9 151.84H45.08V151.57H47.03C50.26 151.57 52.87 151.03 52.87 145.79V110.92C52.87 105.62 50.25 105.08 47.03 105.08H45.08V104.81H65.9C80.07 104.81 89.07 115.36 89.07 128.32V128.33ZM82.35 128.33C82.35 116.98 77.24 105.09 65.22 105.09H58.43V151.57H65.22C77.24 151.57 82.35 139.74 82.35 128.33Z" fill="white"/>
<path d="M124.8 150.36C125.34 149.56 125.47 148.55 125.14 147.68L111.51 113.11L101.5 136.72L99.48 141.69C98.61 143.9 98.87 146.39 100.22 148.41C101.56 150.36 103.78 151.57 106.2 151.57V151.84H87.73V151.57C94.58 151.57 97.6 145.25 99.22 141.29L113.73 104.82H114L128.98 142.37C130.52 146.27 132.67 151.57 137.38 151.57V151.84H119.45V151.57H122.54C123.48 151.57 124.35 151.1 124.82 150.36H124.8Z" fill="white"/>
<path d="M197.88 150.36C198.42 149.56 198.55 148.55 198.22 147.68L184.59 113.11L174.58 136.72L172.57 141.69C171.7 143.9 171.97 146.39 173.31 148.41C174.65 150.36 176.87 151.57 179.29 151.57V151.84H160.82V151.57C167.67 151.57 170.69 145.25 172.31 141.29L186.82 104.82H187.09L202.07 142.37C203.62 146.27 205.76 151.57 210.47 151.57V151.84H192.54V151.57H195.63C196.57 151.57 197.44 151.1 197.91 150.36H197.88Z" fill="white"/>
<path d="M177.6 104.82V105.09C170.75 105.09 167.73 111.41 166.12 115.37L151.54 151.85H151.27L136.36 114.37C134.82 110.4 132.67 105.1 127.97 105.1V104.83H145.84V105.1H142.82C141.88 105.1 141.01 105.58 140.47 106.38C140 107.12 139.86 108.12 140.2 109L154.24 144.13L165.86 114.98C166.73 112.76 166.46 110.28 165.12 108.26C163.78 106.31 161.56 105.1 159.14 105.1V104.83H177.61L177.6 104.82Z" fill="white"/>
<path d="M246.25 139.55C246.25 146.47 239.73 152.38 231.34 152.38C223.75 152.38 220.19 147.41 217.5 149.29L217.23 149.35L215.69 135.78H215.95C217.43 141.96 222.94 151.97 231.33 151.97C236.7 151.97 241 147.8 240.93 142.9C240.93 130.13 215.14 128.93 215.14 115.36C215.14 109.38 220.85 104.34 228.1 104.34C233.34 104.34 236.9 106.96 239.59 106.96C240.4 106.96 240.8 106.69 240.73 105.89H241L242.55 119.39L242.28 119.46C241.14 115.03 238.11 104.75 228.11 104.75C223.21 104.75 219.85 108.11 219.85 112.14C219.85 124.1 246.25 124.7 246.25 139.55Z" fill="white"/>
<path d="M17.47 98.82C23.13 100.81 26.35 106.36 24.17 112.55L20.97 121.64L20.85 121.6L21.15 120.75C21.65 119.34 21.81 118.12 19.53 117.31L4.32 111.95C2 111.13 1.37 112.19 0.870001 113.6L0.570001 114.45L0.450001 114.41L3.65 105.32C5.83 99.13 11.82 96.83 17.47 98.82ZM16.44 101.75C11.49 100 5.51 100.4 3.66 105.65L2.62 108.61L22.91 115.75L23.95 112.79C25.8 107.54 21.42 103.5 16.44 101.74V101.75Z" fill="white"/>
<path d="M40.28 79.42C40.1 79.01 39.74 78.7 39.32 78.62L33.95 77.6L29.13 85.07L30.56 87.1C31.2 88 32.24 88.51 33.36 88.5C34.46 88.47 35.48 87.91 36.09 86.97L36.19 87.04L31.56 94.22L31.46 94.15C33.18 91.48 31.48 88.73 30.34 87.11L19.8 72.32L19.87 72.21L38.23 75.8C40.13 76.18 42.73 76.67 43.91 74.84L44.02 74.91L39.52 81.88L39.42 81.81L40.19 80.61C40.42 80.24 40.46 79.79 40.29 79.42H40.28ZM33.83 77.55L22.14 75.26L29.05 84.97L33.83 77.55Z" fill="white"/>
<path d="M48.44 39.08L48.53 39.17C46.28 41.4 47.34 44.46 48.1 46.29L55.18 63.03L55.09 63.12L37.98 55.65C36.18 54.85 33.75 53.8 32.2 55.33L32.11 55.24L37.99 49.42L38.08 49.51L37.09 50.49C36.78 50.8 36.65 51.24 36.73 51.68C36.82 52.08 37.1 52.45 37.5 52.63L53.55 59.61L47.88 46.24C47.45 45.23 46.55 44.5 45.45 44.27C44.37 44.07 43.25 44.39 42.46 45.18L42.37 45.09L48.45 39.08H48.44Z" fill="white"/>
<path d="M80.58 42.32C80.58 41.87 80.38 41.45 80.03 41.19L75.55 38.07L68.11 42.92L68.58 45.35C68.8 46.43 69.53 47.33 70.56 47.77C71.57 48.18 72.74 48.09 73.68 47.48L73.75 47.58L66.59 52.25L66.52 52.15C69.18 50.42 68.75 47.21 68.37 45.26L64.77 27.46L64.87 27.39L80.16 38.15C81.74 39.27 83.92 40.78 85.74 39.6L85.81 39.7L78.86 44.23L78.79 44.13L79.99 43.35C80.35 43.11 80.57 42.71 80.57 42.3L80.58 42.32ZM75.45 37.99L65.71 31.13L68.06 42.81L75.45 37.99Z" fill="white"/>
<path d="M106.79 25.08C107.92 28.08 106.05 31.7 102.42 33.07C99.13 34.3 96.78 32.73 95.92 33.98L95.81 34.05L92.93 28.42L93.05 28.38C94.7 30.82 98.71 34.26 102.35 32.89C104.68 32.02 105.86 29.51 105.04 27.4C102.96 21.87 91.59 25.54 89.38 19.67C88.41 17.08 90.06 13.97 93.2 12.79C95.47 11.94 97.44 12.49 98.6 12.06C98.95 11.93 99.08 11.75 98.92 11.41L99.04 11.37L101.91 16.97L101.8 17.04C100.58 15.31 97.6 11.34 93.27 12.97C91.15 13.77 90.24 15.77 90.89 17.51C92.84 22.69 104.37 18.66 106.79 25.09V25.08Z" fill="white"/>
<path d="M137.68 29.22L150.29 0.04L152.62 0L140.01 29.18L137.68 29.22Z" fill="white"/>
<path d="M175.76 27.61L181.6 6.65002L190.4 9.10002C194.59 10.27 196.45 13.3 195.49 16.78C194.5 20.34 191.33 21.98 187.14 20.81L180.55 18.97L177.97 28.22L175.75 27.6L175.76 27.61ZM181.11 16.97L187.55 18.76C190.51 19.59 192.61 18.66 193.29 16.23C193.98 13.75 192.66 11.89 189.7 11.07L183.26 9.28002L181.11 16.97Z" fill="white"/>
<path d="M204.38 37.4L215.03 18.43L223.51 23.19C227.22 25.27 228.36 28.59 226.61 31.7C225.1 34.38 222.36 35.41 219.28 34.29L220.51 46.45L218.15 45.13L216.98 33.25L211.18 29.99L206.39 38.53L204.39 37.4H204.38ZM212.2 28.17L218.57 31.74C221.17 33.2 223.35 32.82 224.56 30.65C225.78 28.48 224.96 26.38 222.39 24.94L216.02 21.36L212.2 28.16V28.17Z" fill="white"/>
<path d="M231.78 55.42L245.95 38.9L247.7 40.4L233.53 56.92L231.78 55.42Z" fill="white"/>
<path d="M245.21 67.92L262.49 54.7L263.87 56.5L260.28 69.15L273.43 69L274.79 70.78L257.51 84L256.13 82.2L270.65 71.1L258.77 71.22L257.92 70.11L261.11 58.63L246.59 69.73L245.21 67.93V67.92Z" fill="white"/>
<path d="M265.08 97.76L285.08 89.2L290.95 102.91L289.04 103.73L284.07 92.13L277.67 94.87L281.74 104.38L279.83 105.2L275.76 95.68L267.9 99.04L273.05 111.07L271.14 111.89L265.09 97.75L265.08 97.76Z" fill="white"/>
<path d="M21.86 188.28L33.35 184.54L35.03 189.68C35.76 191.93 34.98 193.71 33.09 194.32C31.47 194.85 29.96 194.23 29.12 192.62L25.04 198.05L24.57 196.62L28.57 191.32L27.43 187.81L22.26 189.49L21.86 188.27V188.28ZM28.53 187.45L29.79 191.31C30.3 192.89 31.34 193.55 32.65 193.12C33.96 192.69 34.42 191.53 33.91 189.97L32.65 186.11L28.53 187.45Z" fill="white"/>
<path d="M28.35 206.52L39.29 201.38L42.82 208.88L41.77 209.37L38.79 203.03L35.29 204.68L37.73 209.88L36.68 210.37L34.23 205.17L29.93 207.19L33.02 213.77L31.97 214.26L28.33 206.53L28.35 206.52Z" fill="white"/>
<path d="M36.54 222.35L46.67 215.75L49.44 220C50.76 222.03 50.43 223.98 48.75 225.07C47.03 226.19 45.11 225.71 43.79 223.69L41.71 220.51L37.24 223.42L36.54 222.35ZM42.68 219.87L44.71 222.98C45.64 224.41 46.86 224.79 48.03 224.03C49.23 223.25 49.36 221.99 48.42 220.56L46.39 217.45L42.67 219.88L42.68 219.87Z" fill="white"/>
<path d="M47.13 237.29L56.18 229.28L59.76 233.32C61.33 235.09 61.32 237.04 59.83 238.35C58.55 239.48 56.92 239.52 55.51 238.37L53.93 244.98L52.94 243.86L54.5 237.41L52.05 234.64L47.98 238.24L47.13 237.28V237.29ZM52.92 233.88L55.61 236.92C56.71 238.16 57.92 238.36 58.95 237.44C59.98 236.52 59.94 235.27 58.85 234.05L56.16 231.01L52.91 233.88H52.92Z" fill="white"/>
<path d="M60.66 251.39L68.47 242.17L74.79 247.53L74.04 248.41L68.69 243.88L66.19 246.83L70.58 250.55L69.83 251.43L65.44 247.71L62.37 251.33L67.92 256.03L67.17 256.91L60.65 251.38L60.66 251.39Z" fill="white"/>
<path d="M74.5 260.99L75.27 259.78C75.45 260.36 75.78 261 76.28 261.69C76.81 262.37 77.42 262.95 78.15 263.42C79.74 264.43 81.37 264.43 82.13 263.26C82.61 262.67 82.44 261.88 82.17 261.34C82.11 261.18 81.97 260.95 81.74 260.66L81.24 260.03C81.12 259.89 80.92 259.64 80.62 259.31C80.25 258.89 79.95 258.56 79.75 258.3C79.55 258.05 79.31 257.73 79.08 257.36C78.85 256.98 78.71 256.65 78.65 256.37C78.53 255.78 78.61 255.02 79.07 254.3C79.56 253.53 80.27 253.1 81.21 253C82.15 252.9 83.17 253.21 84.27 253.91C85.48 254.68 86.36 255.64 86.9 256.78L86.19 257.89C85.59 256.62 84.74 255.63 83.65 254.94C82.02 253.9 80.73 254.1 80.13 255.03C79.73 255.49 79.89 256.14 80.05 256.6C80.09 256.73 80.2 256.9 80.38 257.14L80.75 257.64L81.26 258.22L81.76 258.78C82.1 259.18 82.37 259.5 82.56 259.74C82.75 259.98 82.98 260.31 83.2 260.7C83.42 261.09 83.57 261.44 83.63 261.75C83.79 262.36 83.7 263.21 83.23 263.95C82.65 264.87 81.83 265.35 80.75 265.4C79.69 265.46 78.63 265.15 77.57 264.48C76.06 263.51 74.92 262.15 74.49 261L74.5 260.99Z" fill="white"/>
<path d="M89.86 271.26L94.94 260.29L102.46 263.77L101.97 264.82L95.61 261.87L93.98 265.38L99.2 267.8L98.71 268.85L93.49 266.44L91.49 270.75L98.09 273.8L97.6 274.85L89.85 271.26H89.86Z" fill="white"/>
<path d="M106.34 278.17L109.78 266.59L110.84 266.9L115.35 278.53L118.16 269.07L119.35 269.42L115.91 281L114.87 280.69L110.36 269.02L107.54 278.52L106.35 278.17H106.34Z" fill="white"/>
<path d="M128.96 283.54L130.52 272.72L126.4 272.13L126.57 270.98L136.13 272.36L135.97 273.51L131.8 272.91L130.24 283.73L128.98 283.55L128.96 283.54Z" fill="white"/>
<path d="M155.63 284.76L154.95 273.85L150.8 274.11L150.73 272.95L160.37 272.35L160.44 273.51L156.23 273.77L156.91 284.68L155.63 284.76Z" fill="white"/>
<path d="M170.18 283.18L167.69 271.35L168.94 271.09L169.98 276.01L177.01 274.53L175.97 269.61L177.22 269.35L179.72 281.18L178.47 281.44L177.25 275.66L170.22 277.14L171.44 282.92L170.19 283.18H170.18Z" fill="white"/>
<path d="M189.5 278.29L185.35 266.93L193.14 264.09L193.54 265.17L186.95 267.58L188.28 271.22L193.68 269.24L194.08 270.33L188.68 272.31L190.31 276.77L197.14 274.27L197.54 275.36L189.51 278.29H189.5Z" fill="white"/>
<path d="M213.6 252.97C215.05 252.01 216.58 251.72 218.2 252.07C219.82 252.43 221.13 253.34 222.12 254.82C223.1 256.3 223.44 257.88 223.14 259.51C222.83 261.14 221.96 262.42 220.51 263.39C219.05 264.35 217.52 264.67 215.9 264.31C214.28 263.95 212.97 263.02 211.99 261.53C211.01 260.05 210.66 258.49 210.97 256.86C211.28 255.23 212.15 253.92 213.61 252.96L213.6 252.97ZM219.85 262.4C220.97 261.65 221.65 260.62 221.88 259.31C222.11 258 221.83 256.73 221.04 255.54C220.25 254.34 219.19 253.59 217.89 253.29C216.59 252.99 215.38 253.21 214.25 253.96C213.13 254.7 212.44 255.74 212.22 257.05C211.99 258.36 212.27 259.63 213.06 260.82C213.85 262.01 214.91 262.77 216.21 263.07C217.51 263.37 218.72 263.14 219.85 262.4Z" fill="white"/>
<path d="M233.15 253.7L224.97 244.81L228.95 241.15C230.69 239.55 232.63 239.52 233.98 240.98C235.14 242.24 235.2 243.87 234.08 245.3L240.71 246.75L239.61 247.76L233.13 246.33L230.41 248.83L234.09 252.83L233.15 253.69V253.7ZM229.63 247.98L232.62 245.23C233.84 244.11 234.01 242.89 233.08 241.88C232.14 240.86 230.9 240.93 229.69 242.04L226.7 244.79L229.63 247.98Z" fill="white"/>
<path d="M246.85 239.96L237.67 232.09L238.5 231.12L247.67 238.99L246.84 239.96H246.85Z" fill="white"/>
<path d="M253.96 231.11L243.98 224.3L248.65 217.45L249.61 218.1L245.66 223.89L248.86 226.07L252.1 221.32L253.05 221.97L249.81 226.72L253.73 229.4L257.82 223.4L258.78 224.05L253.96 231.11Z" fill="white"/>
<path d="M263.48 215.96L252.62 210.67L253.1 209.68L265.32 207.14L256.44 202.82L256.98 201.7L267.85 206.99L267.37 207.97L255.11 210.51L264.02 214.85L263.47 215.97L263.48 215.96Z" fill="white"/>
<path d="M272.5 194.55L262.09 191.23L260.83 195.19L259.73 194.84L262.67 185.64L263.77 185.99L262.49 190L272.9 193.33L272.51 194.55H272.5Z" fill="white"/>
<path d="M149.58 259.87C200.1 259.87 242.68 224.29 253.3 176.15H251.57C240.97 223.34 199.16 258.17 149.58 258.17C100 258.17 58.19 223.34 47.59 176.15H45.85C56.48 224.29 99.06 259.87 149.58 259.87Z" fill="white"/>
<path d="M250.62 257.06C222.83 283.08 186.62 297.41 148.67 297.41C110.72 297.41 74.51 283.08 46.72 257.06C23.48 235.29 7.87 207.04 1.73 176.14H0C6.16 207.52 21.98 236.21 45.57 258.3C73.68 284.61 110.29 299.1 148.68 299.1C187.07 299.1 223.68 284.61 251.79 258.3C275.38 236.22 291.2 207.52 297.36 176.14H295.63C289.49 207.04 273.88 235.29 250.64 257.05L250.62 257.06Z" fill="white"/>
</svg>
